<?xml version="1.0" encoding="utf-8"?>
<!-- Generator: Adobe Illustrator 22.0.1, SVG Export Plug-In . SVG Version: 6.00 Build 0)  -->
<svg version="1.1" id="图层_1" xmlns="http://www.w3.org/2000/svg" xmlns:xlink="http://www.w3.org/1999/xlink" x="0px" y="0px"
	 viewBox="0 0 100.6 50" style="enable-background:new 0 0 100.6 50;" xml:space="preserve">
<style type="text/css">
	.st0{font-family:'Arial-ItalicMT';}
	.st1{font-size:17.9533px;}
</style>
<g>
	<path d="M27.4,7.2h8.6c2.5,0,4.4,0.8,5.5,2.2c1.1,1.4,1.5,3.4,1.1,5.9c-0.2,1.1-0.5,2.3-1,3.3c-0.5,1.1-1.2,2.1-2.1,3
		c-1.1,1.1-2.2,1.8-3.4,2.1c-1.2,0.3-2.5,0.5-3.8,0.5h-3.9l-1.2,6.1h-4.5L27.4,7.2L27.4,7.2 M31.2,10.9l-1.9,9.7c0.1,0,0.3,0,0.4,0
		c0.2,0,0.3,0,0.5,0c2.1,0,3.8-0.2,5.2-0.6c1.4-0.5,2.3-2,2.8-4.7c0.4-2.3,0-3.6-1.2-3.9c-1.1-0.3-2.6-0.5-4.3-0.5
		c-0.3,0-0.5,0-0.7,0C31.6,10.9,31.4,10.9,31.2,10.9L31.2,10.9"/>
	<path d="M47.8,1h4.4L51,7.2h4c2.2,0,3.8,0.5,4.9,1.4c1.1,0.9,1.4,2.5,1,4.9l-2.2,10.7h-4.5l2.1-10.2c0.2-1.1,0.2-1.8-0.2-2.3
		c-0.3-0.5-1.1-0.7-2.2-0.7l-3.6,0l-2.6,13.2h-4.4L47.8,1L47.8,1"/>
	<path d="M65.6,7.2h8.6c2.5,0,4.4,0.8,5.5,2.2c1.1,1.4,1.5,3.4,1.1,5.9c-0.2,1.1-0.5,2.3-1,3.3c-0.5,1.1-1.2,2.1-2.1,3
		c-1.1,1.1-2.2,1.8-3.4,2.1c-1.2,0.3-2.5,0.5-3.8,0.5h-3.9l-1.2,6.1H61L65.6,7.2L65.6,7.2 M69.4,10.9l-1.9,9.7c0.1,0,0.3,0,0.4,0
		c0.2,0,0.3,0,0.5,0c2.1,0,3.8-0.2,5.2-0.6c1.4-0.5,2.3-2,2.8-4.7c0.4-2.3,0-3.6-1.2-3.9c-1.1-0.3-2.6-0.5-4.3-0.5
		c-0.3,0-0.5,0-0.7,0C69.8,10.9,69.6,10.9,69.4,10.9L69.4,10.9"/>
</g>
<text transform="matrix(1 0 0 1 -0.125 47.8662)" class="st0 st1">Microservice</text>
</svg>
